# xmcd
# 
# Track frame offsets:
#     150
#     14633
#     32042
#     48907
#     64535
#     82251
#     99816
#     117482
#     141753
#     158447
#     174119
#     191000
#     213259
#     228188
#     246214
#     260825
#     271832
# 
# Disc length: 3821
# 
# Revision: 2
# Processed by: cddbd v1.5.2PL0 Copyright (c) Steve Scherf et al.
# Submitted via: fre:ac v1.0.31
# 
DISCID=e00eeb11
DTITLE=Now That's What I Call Music - Now That's What I Call ACM Awards 50 Years Disc 1
DYEAR=2015
DGENRE=Country
TTITLE0=Jason Aldean with Luke Bryan and Eric Church - The Only Way I Know (2012)
TTITLE1=Lee Brice - I Drive Your Truck (2012)
TTITLE2=Luke Bryan - Country Girl (Shake It for Me) (2011)
TTITLE3=Blake Shelton - Honey Bee (2011)
TTITLE4=Taylor Swift - Mean (2010)
TTITLE5=Lady Antebellum - Need You Now (2010)
TTITLE6=Miranda Lambert - The House That Built Me (2009)
TTITLE7=Brad Paisley and Keith Urban - Start a Band (2008)
TTITLE8=Reba McEntire and Kelly Clarkson - Because of You (2007)
TTITLE9=George Strait - Give It Away (2006)
TTITLE10=Carrie Underwood - Jesus, Take the Wheel (2005)
TTITLE11=Tim McGraw - Live like You Were Dying (2004)
TTITLE12=Kenny Chesney - The Good Stuff (2002)
TTITLE13=Lee Ann Womack - I Hope You Dance (2000)
TTITLE14=Faith Hill - This Kiss (1998)
TTITLE15=Alan Jackson - Chattahoochee (1993)
TTITLE16=Brooks and Dunn - Boot Scootin' Boogie (1991)
EXTD=
EXTT0=
EXTT1=
EXTT2=
EXTT3=
EXTT4=
EXTT5=
EXTT6=
EXTT7=
EXTT8=
EXTT9=
EXTT10=
EXTT11=
EXTT12=
EXTT13=
EXTT14=
EXTT15=
EXTT16=
PLAYORDER=
